<?xml version="1.0" encoding="UTF-8"?>
<svg enable-background="new 0 0 427 158" version="1.1" viewBox="0 0 427 158" xml:space="preserve" xmlns="http://www.w3.org/2000/svg">
	<g fill="#010101">
		<path d="m154.61 53.556c6.54 0.358 10.967 0.537 13.282 0.537 0.549 0 0.984-0.161 1.307-0.483 0.322-0.322 0.483-0.758 0.483-1.307v-3.222h-8.234c-2.506 0-4.327-0.567-5.46-1.701-1.134-1.133-1.7-2.954-1.7-5.459v-1.074c0-2.506 0.566-4.326 1.7-5.459 1.133-1.133 2.954-1.701 5.46-1.701h12.566v5.012h-11.134c-1.432 0-2.148 0.716-2.148 2.148v0.716c0 1.432 0.716 2.148 2.148 2.148h6.444c2.339 0 4.057 0.549 5.155 1.646 1.098 1.098 1.647 2.817 1.647 5.155v1.79c0 2.339-0.549 4.058-1.647 5.155-1.098 1.098-2.816 1.647-5.155 1.647-1.217 0-2.506-0.024-3.867-0.071l-3.293-0.144c-2.435-0.12-4.953-0.286-7.554-0.501v-4.832z"/>
		<path d="m186.86 40.489v18.258h-6.265v-13.425h-2.685v-4.833h8.95zm-6.265-7.16h6.265v5.012h-6.265v-5.012z"/>
		<path d="m189.73 53.735c4.845 0.358 8.664 0.537 11.456 0.537 0.358 0 0.656-0.119 0.895-0.358 0.238-0.238 0.358-0.537 0.358-0.895v-1.253h-7.697c-1.623 0-2.924-0.489-3.902-1.468-0.979-0.978-1.468-2.279-1.468-3.902v-1.253c0-1.623 0.489-2.923 1.468-3.902 0.978-0.979 2.279-1.468 3.902-1.468h12.172v4.654h-10.024c-0.358 0-0.657 0.12-0.895 0.358-0.239 0.239-0.358 0.537-0.358 0.895s0.119 0.657 0.358 0.895c0.238 0.239 0.537 0.358 0.895 0.358h6.444c1.623 0 2.923 0.49 3.902 1.468 0.979 0.979 1.468 2.279 1.468 3.902v1.432c0 1.624-0.489 2.924-1.468 3.902-0.979 0.979-2.279 1.468-3.902 1.468-4.225 0-8.759-0.239-13.604-0.716v-4.654z"/>
		<path d="m224.45 58.747c-2.315 0.238-4.583 0.358-6.802 0.358-1.624 0-2.924-0.489-3.902-1.468-0.979-0.979-1.468-2.279-1.468-3.902v-9.129h-2.148v-4.833h2.148l0.716-4.296h5.549v4.296h4.476v4.833h-4.476v8.234c0 0.358 0.119 0.657 0.358 0.895 0.238 0.239 0.537 0.358 0.895 0.358h4.654v4.654z"/>
		<path d="m244.14 58.389c-4.606 0.477-8.783 0.716-12.53 0.716-1.623 0-2.924-0.489-3.902-1.468-0.979-0.979-1.468-2.279-1.468-3.902v-8.592c0-1.79 0.507-3.191 1.521-4.207 1.015-1.014 2.417-1.521 4.207-1.521h7.16c1.79 0 3.191 0.507 4.207 1.521 1.014 1.015 1.521 2.417 1.521 4.207v6.624h-12.352v1.432c0 0.358 0.119 0.657 0.357 0.895 0.239 0.239 0.537 0.358 0.896 0.358 2.363 0 5.823-0.179 10.382-0.537v4.474zm-10.204-14.499c-0.955 0-1.432 0.478-1.432 1.432v1.969h6.086v-1.969c0-0.954-0.478-1.432-1.432-1.432h-3.222z"/>
		<path d="m260.79 39.415c1.934 0 3.425 0.716 4.476 2.148 1.098-0.739 2.285-1.282 3.562-1.629 1.277-0.346 2.417-0.519 3.419-0.519h0.358c1.623 0 2.924 0.49 3.902 1.468 0.979 0.979 1.468 2.28 1.468 3.902v13.962h-6.265v-12.888c0-0.358-0.12-0.656-0.358-0.895-0.239-0.238-0.537-0.358-0.896-0.358h-0.179c-1.074 0-2.446 0.239-4.117 0.716v13.425h-6.265v-12.888c0-0.358-0.12-0.656-0.358-0.895-0.238-0.238-0.537-0.358-0.895-0.358h-0.18c-1.073 0-2.446 0.239-4.117 0.716v13.425h-6.265v-18.975h5.549l0.358 1.79c1.121-0.739 2.273-1.282 3.455-1.629 1.181-0.346 2.178-0.519 2.989-0.519h0.359z"/>
		<path d="m282.09 40.131c4.368-0.478 8.307-0.716 11.814-0.716 1.623 0 2.924 0.49 3.902 1.468 0.979 0.979 1.468 2.28 1.468 3.902v13.962h-5.549l-0.358-1.79c-1.122 0.74-2.273 1.283-3.454 1.629-1.182 0.346-2.179 0.519-2.989 0.519h-1.254c-1.623 0-2.924-0.489-3.901-1.468-0.979-0.979-1.469-2.279-1.469-3.902v-1.611c0-1.623 0.489-2.923 1.469-3.902 0.978-0.979 2.278-1.468 3.901-1.468h7.34v-1.432c0-0.358-0.12-0.656-0.358-0.895-0.238-0.238-0.537-0.358-0.895-0.358-1.552 0-3.265 0.071-5.138 0.215-1.874 0.143-3.383 0.25-4.529 0.322v-4.475zm6.624 13.962c1.265 0 2.696-0.238 4.296-0.716v-2.148h-5.191c-0.358 0-0.656 0.12-0.895 0.358-0.239 0.239-0.358 0.537-0.358 0.895v0.358c0 0.358 0.119 0.657 0.358 0.895 0.238 0.239 0.536 0.358 0.895 0.358h0.895z"/>
		<path d="m301.78 53.735c4.845 0.358 8.664 0.537 11.456 0.537 0.358 0 0.656-0.119 0.895-0.358 0.239-0.238 0.358-0.537 0.358-0.895v-1.253h-7.697c-1.623 0-2.924-0.489-3.902-1.468-0.979-0.978-1.468-2.279-1.468-3.902v-1.253c0-1.623 0.489-2.923 1.468-3.902s2.279-1.468 3.902-1.468h12.173v4.654h-10.024c-0.358 0-0.657 0.12-0.896 0.358-0.238 0.239-0.357 0.537-0.357 0.895s0.119 0.657 0.357 0.895c0.238 0.239 0.537 0.358 0.896 0.358h6.444c1.622 0 2.923 0.49 3.902 1.468 0.978 0.979 1.468 2.279 1.468 3.902v1.432c0 1.624-0.49 2.924-1.468 3.902-0.979 0.979-2.28 1.468-3.902 1.468-4.225 0-8.76-0.239-13.604-0.716v-4.654z"/>
		<path d="m167.53 93.207h-6.444v-20.049h-7.518v-5.012h21.48v5.012h-7.518v20.049z"/>
		<path d="m192.95 92.848c-4.606 0.478-8.784 0.717-12.53 0.717-1.624 0-2.924-0.489-3.902-1.468-0.979-0.979-1.468-2.279-1.468-3.902v-8.593c0-1.79 0.507-3.191 1.521-4.207 1.014-1.014 2.417-1.521 4.207-1.521h7.16c1.79 0 3.192 0.507 4.207 1.521 1.014 1.015 1.521 2.417 1.521 4.207v6.623h-12.351v1.433c0 0.357 0.119 0.656 0.358 0.895 0.238 0.239 0.537 0.358 0.895 0.358 2.363 0 5.823-0.179 10.382-0.537v4.474zm-10.203-14.499c-0.955 0-1.432 0.478-1.432 1.433v1.969h6.086v-1.969c0-0.955-0.478-1.433-1.432-1.433h-3.222z"/>
		<path d="m213.71 92.848c-4.463 0.478-8.401 0.717-11.814 0.717-1.624 0-2.924-0.489-3.902-1.468-0.979-0.979-1.468-2.279-1.468-3.902v-8.235c0-1.79 0.507-3.191 1.521-4.207 1.014-1.014 2.417-1.522 4.207-1.522h11.456v4.833h-9.487c-0.955 0-1.432 0.478-1.432 1.433v6.98c0 0.358 0.119 0.657 0.358 0.896 0.238 0.238 0.537 0.358 0.895 0.358 2.148 0 5.37-0.18 9.666-0.537v4.654z"/>
		<path d="m227.14 79.065c-1.266 0-2.697 0.239-4.297 0.717v13.425h-6.265v-18.975h5.548l0.359 1.79c1.121-0.739 2.273-1.282 3.455-1.629 1.18-0.346 2.178-0.519 2.988-0.519h1.611c1.623 0 2.924 0.49 3.902 1.468 0.979 0.979 1.467 2.28 1.467 3.903v13.962h-6.264v-12.889c0-0.357-0.121-0.655-0.359-0.895-0.238-0.238-0.537-0.358-0.895-0.358h-1.25z"/>
		<path d="m258.46 87.836c0 1.79-0.507 3.192-1.521 4.207s-2.416 1.521-4.206 1.521h-8.234c-1.79 0-3.192-0.507-4.207-1.521s-1.521-2.417-1.521-4.207v-8.234c0-1.79 0.507-3.191 1.521-4.207 1.015-1.014 2.417-1.521 4.207-1.521h8.234c1.79 0 3.191 0.507 4.206 1.521 1.015 1.015 1.521 2.417 1.521 4.207v8.234zm-6.265-7.697c0-0.954-0.478-1.432-1.433-1.432h-4.296c-0.955 0-1.432 0.478-1.432 1.432v7.16c0 0.955 0.477 1.433 1.432 1.433h4.296c0.955 0 1.433-0.478 1.433-1.433v-7.16z"/>
		<path d="m271.35 93.207c-1.599 0.238-3.121 0.358-4.564 0.358-1.444 0-2.655-0.489-3.634-1.468s-1.468-2.279-1.468-3.902v-20.049h6.265v19.153c0 0.358 0.119 0.657 0.358 0.896 0.238 0.238 0.537 0.357 0.896 0.357h2.147v4.655z"/>
		<path d="m293.19 87.836c0 1.79-0.507 3.192-1.521 4.207s-2.416 1.521-4.206 1.521h-8.234c-1.79 0-3.192-0.507-4.207-1.521s-1.521-2.417-1.521-4.207v-8.234c0-1.79 0.507-3.191 1.521-4.207 1.015-1.014 2.417-1.521 4.207-1.521h8.234c1.79 0 3.191 0.507 4.206 1.521 1.015 1.015 1.521 2.417 1.521 4.207v8.234zm-6.264-7.697c0-0.954-0.478-1.432-1.433-1.432h-4.296c-0.955 0-1.432 0.478-1.432 1.432v7.16c0 0.955 0.477 1.433 1.432 1.433h4.296c0.955 0 1.433-0.478 1.433-1.433v-7.16zm-6.086-7.339l2.147-6.086h6.444l-3.938 6.086h-4.653z"/>
		<path d="m308.76 91.775c-2.315 0.478-4.345 0.716-6.087 0.716h-1.253c-1.623 0-2.924-0.489-3.903-1.468s-1.468-2.279-1.468-3.902v-7.16c0-1.79 0.507-3.191 1.521-4.207 1.015-1.014 2.417-1.522 4.208-1.522h13.246v20.049c0 1.623-0.489 2.923-1.468 3.902s-2.279 1.468-3.902 1.468c-3.747 0-7.924-0.239-12.531-0.716v-4.654c4.559 0.357 8.02 0.537 10.383 0.537 0.357 0 0.655-0.12 0.895-0.358 0.238-0.238 0.358-0.537 0.358-0.895v-1.79zm-4.297-4.117c1.504 0 2.937-0.119 4.297-0.358v-8.234h-5.013c-0.955 0-1.432 0.478-1.432 1.433v5.907c0 0.357 0.119 0.656 0.357 0.895 0.239 0.239 0.537 0.358 0.896 0.358h0.895z"/>
		<path d="m326.48 74.948v18.258h-6.265v-13.424h-2.686v-4.833h8.951zm-6.265-7.16h6.265v5.012h-6.265v-5.012z"/>
		<path d="m346.89 92.848c-4.463 0.478-8.401 0.717-11.814 0.717-1.623 0-2.924-0.489-3.902-1.468s-1.468-2.279-1.468-3.902v-8.235c0-1.79 0.507-3.191 1.521-4.207 1.015-1.014 2.417-1.522 4.207-1.522h11.456v4.833h-9.487c-0.955 0-1.432 0.478-1.432 1.433v6.98c0 0.358 0.119 0.657 0.357 0.896 0.239 0.238 0.537 0.358 0.896 0.358 2.148 0 5.37-0.18 9.666-0.537v4.654z"/>
		<path d="m369.09 87.836c0 1.79-0.507 3.192-1.521 4.207s-2.416 1.521-4.206 1.521h-8.234c-1.79 0-3.192-0.507-4.207-1.521s-1.521-2.417-1.521-4.207v-8.234c0-1.79 0.507-3.191 1.521-4.207 1.015-1.014 2.417-1.521 4.207-1.521h8.234c1.79 0 3.191 0.507 4.206 1.521 1.015 1.015 1.521 2.417 1.521 4.207v8.234zm-6.264-7.697c0-0.954-0.478-1.432-1.433-1.432h-4.296c-0.955 0-1.432 0.478-1.432 1.432v7.16c0 0.955 0.477 1.433 1.432 1.433h4.296c0.955 0 1.433-0.478 1.433-1.433v-7.16z"/>
		<path d="m371.59 88.195c4.845 0.357 8.664 0.537 11.456 0.537 0.358 0 0.656-0.12 0.895-0.358s0.358-0.537 0.358-0.896v-1.253h-7.697c-1.623 0-2.924-0.488-3.902-1.468-0.979-0.979-1.468-2.278-1.468-3.902v-1.253c0-1.623 0.489-2.923 1.468-3.902s2.279-1.468 3.902-1.468h12.173v4.654h-10.024c-0.358 0-0.657 0.12-0.896 0.358s-0.357 0.537-0.357 0.895 0.119 0.657 0.357 0.896 0.537 0.357 0.896 0.357h6.444c1.622 0 2.923 0.489 3.902 1.468 0.978 0.979 1.468 2.279 1.468 3.902v1.433c0 1.623-0.49 2.924-1.468 3.902-0.979 0.979-2.28 1.468-3.902 1.468-4.225 0-8.76-0.239-13.604-0.717v-4.653z"/>
		<path d="m168.43 127.67l-0.358-1.79c-1.122 0.74-2.273 1.283-3.455 1.629-1.181 0.346-2.178 0.52-2.989 0.52h-1.611c-1.624 0-2.924-0.489-3.902-1.468-0.979-0.979-1.468-2.279-1.468-3.902v-8.234c0-1.79 0.507-3.192 1.521-4.207 1.014-1.014 2.417-1.521 4.207-1.521h7.339v-6.086h6.265v25.061h-5.549zm-5.012-4.834c1.265 0 2.697-0.238 4.296-0.716v-8.593h-5.37c-0.955 0-1.432 0.478-1.432 1.433v6.623c0 0.357 0.119 0.656 0.358 0.895 0.238 0.239 0.537 0.358 0.895 0.358h1.253z"/>
		<path d="m195.1 127.31c-4.606 0.478-8.784 0.717-12.53 0.717-1.624 0-2.924-0.489-3.902-1.468-0.979-0.979-1.468-2.279-1.468-3.902v-8.593c0-1.79 0.507-3.191 1.521-4.206s2.417-1.521 4.207-1.521h7.16c1.79 0 3.192 0.507 4.207 1.521 1.014 1.015 1.521 2.416 1.521 4.206v6.623h-12.351v1.433c0 0.357 0.119 0.656 0.358 0.895 0.238 0.239 0.537 0.358 0.895 0.358 2.363 0 5.823-0.179 10.382-0.537v4.474zm-10.203-14.499c-0.955 0-1.432 0.478-1.432 1.433v1.969h6.086v-1.969c0-0.955-0.478-1.433-1.432-1.433h-3.222z"/>
		<path d="m220.69 120.15l6.086-17.542h6.98l-9.486 25.061h-7.16l-9.487-25.061h6.981l6.086 17.542z"/>
		<path d="m234.66 109.05c4.368-0.478 8.307-0.716 11.814-0.716 1.623 0 2.924 0.489 3.902 1.468s1.468 2.279 1.468 3.902v13.962h-5.549l-0.358-1.79c-1.122 0.74-2.273 1.283-3.454 1.629-1.182 0.346-2.179 0.52-2.989 0.52h-1.254c-1.623 0-2.924-0.489-3.901-1.468-0.979-0.979-1.469-2.279-1.469-3.902v-1.611c0-1.623 0.489-2.924 1.469-3.902 0.978-0.979 2.278-1.468 3.901-1.468h7.34v-1.432c0-0.358-0.12-0.656-0.358-0.896-0.238-0.238-0.537-0.358-0.895-0.358-1.552 0-3.265 0.072-5.138 0.215-1.874 0.144-3.383 0.251-4.529 0.322v-4.475zm6.624 13.962c1.265 0 2.696-0.238 4.296-0.716v-2.148h-5.191c-0.358 0-0.656 0.12-0.895 0.358-0.239 0.239-0.358 0.537-0.358 0.896v0.357c0 0.358 0.119 0.657 0.358 0.896 0.238 0.238 0.536 0.357 0.895 0.357h0.895z"/>
		<path d="m265.62 113.52c-1.266 0-2.697 0.239-4.297 0.717v13.425h-6.265v-18.975h5.549l0.358 1.79c1.121-0.739 2.273-1.282 3.455-1.629 1.181-0.346 2.178-0.519 2.989-0.519h1.61c1.623 0 2.924 0.489 3.902 1.468s1.468 2.279 1.468 3.902v13.962h-6.265v-12.889c0-0.357-0.12-0.655-0.358-0.895-0.238-0.238-0.537-0.358-0.895-0.358h-1.251z"/>
		<path d="m289.97 126.24c-2.315 0.478-4.345 0.716-6.087 0.716h-1.253c-1.623 0-2.924-0.489-3.902-1.468s-1.468-2.279-1.468-3.902v-7.16c0-1.79 0.507-3.192 1.521-4.207 1.015-1.014 2.417-1.521 4.207-1.521h13.246v20.049c0 1.623-0.489 2.923-1.468 3.902s-2.279 1.468-3.902 1.468c-3.747 0-7.924-0.239-12.53-0.716v-4.654c4.559 0.357 8.02 0.537 10.383 0.537 0.357 0 0.655-0.12 0.895-0.358 0.238-0.238 0.358-0.537 0.358-0.895v-1.791zm-4.297-4.117c1.504 0 2.937-0.119 4.297-0.358v-8.234h-5.013c-0.955 0-1.432 0.478-1.432 1.433v5.907c0 0.357 0.119 0.656 0.357 0.895 0.239 0.239 0.537 0.358 0.896 0.358h0.895z"/>
		<path d="m308.58 122.83c1.265 0 2.696-0.238 4.296-0.716v-13.426h6.265v18.975h-5.549l-0.358-1.79c-1.122 0.74-2.272 1.283-3.454 1.629s-2.179 0.52-2.989 0.52h-1.611c-1.623 0-2.924-0.489-3.902-1.468s-1.468-2.279-1.468-3.902v-13.963h6.265v12.889c0 0.357 0.119 0.656 0.358 0.895 0.238 0.239 0.537 0.358 0.896 0.358h1.251z"/>
		<path d="m323.62 109.05c4.368-0.478 8.307-0.716 11.814-0.716 1.623 0 2.924 0.489 3.902 1.468s1.468 2.279 1.468 3.902v13.962h-5.549l-0.358-1.79c-1.122 0.74-2.273 1.283-3.454 1.629-1.182 0.346-2.179 0.52-2.989 0.52h-1.254c-1.623 0-2.924-0.489-3.901-1.468-0.979-0.979-1.469-2.279-1.469-3.902v-1.611c0-1.623 0.489-2.924 1.469-3.902 0.978-0.979 2.278-1.468 3.901-1.468h7.34v-1.432c0-0.358-0.12-0.656-0.358-0.896-0.238-0.238-0.537-0.358-0.895-0.358-1.552 0-3.265 0.072-5.138 0.215-1.874 0.144-3.383 0.251-4.529 0.322v-4.475zm6.624 13.962c1.265 0 2.696-0.238 4.296-0.716v-2.148h-5.191c-0.358 0-0.656 0.12-0.895 0.358-0.239 0.239-0.358 0.537-0.358 0.896v0.357c0 0.358 0.119 0.657 0.358 0.896 0.238 0.238 0.536 0.357 0.895 0.357h0.895z"/>
		<path d="m354.95 113.88c-1.503 0-3.055 0.358-4.654 1.074v12.709h-6.265v-18.975h5.549l0.358 2.327c2.053-1.79 4.2-2.685 6.444-2.685h1.61v5.549h-3.042z"/>
		<path d="m373.2 127.67l-0.357-1.79c-1.122 0.74-2.273 1.283-3.455 1.629s-2.178 0.52-2.989 0.52h-1.611c-1.623 0-2.924-0.489-3.902-1.468s-1.468-2.279-1.468-3.902v-8.234c0-1.79 0.507-3.192 1.521-4.207 1.015-1.014 2.417-1.521 4.207-1.521h7.339v-6.086h6.266v25.061h-5.551zm-5.012-4.834c1.265 0 2.697-0.238 4.296-0.716v-8.593h-5.37c-0.955 0-1.432 0.478-1.432 1.433v6.623c0 0.357 0.119 0.656 0.357 0.895 0.239 0.239 0.537 0.358 0.896 0.358h1.253z"/>
		<path d="m390.21 109.41v18.259h-6.265v-13.425h-2.686v-4.834h8.951zm-6.264-7.16h6.265v5.013h-6.265v-5.013z"/>
		<path d="m394.68 109.05c4.368-0.478 8.307-0.716 11.814-0.716 1.623 0 2.924 0.489 3.902 1.468s1.468 2.279 1.468 3.902v13.962h-5.549l-0.358-1.79c-1.122 0.74-2.273 1.283-3.454 1.629-1.182 0.346-2.179 0.52-2.989 0.52h-1.254c-1.623 0-2.924-0.489-3.901-1.468-0.979-0.979-1.469-2.279-1.469-3.902v-1.611c0-1.623 0.489-2.924 1.469-3.902 0.978-0.979 2.278-1.468 3.901-1.468h7.34v-1.432c0-0.358-0.12-0.656-0.358-0.896-0.238-0.238-0.537-0.358-0.895-0.358-1.552 0-3.265 0.072-5.138 0.215-1.874 0.144-3.383 0.251-4.529 0.322v-4.475zm6.624 13.962c1.265 0 2.696-0.238 4.296-0.716v-2.148h-5.191c-0.358 0-0.656 0.12-0.895 0.358-0.239 0.239-0.358 0.537-0.358 0.896v0.357c0 0.358 0.119 0.657 0.358 0.896 0.238 0.238 0.536 0.357 0.895 0.357h0.895z"/>
	</g>
	<path d="m20.144 41.867l36.746 21.243c7.953 4.357 17.477-0.094 17.522-10.418l0.93-42.491c-0.432-5.028-4.363-6.438-10.056-2.119l-16.693 10.169c-1.106 0.655-1.36 2.146-0.534 3.131l4.812 5.186c0.518 0.617 1.346 0.88 2.125 0.675l7.066-3.886s5.376 18.43-3.107 23.389c-8.933 5.222-21.908-8.767-21.908-8.767l7.709-4.783c0.561-0.633 0.684-1.542 0.311-2.301l-2.972-6.465c-0.536-1.09-1.888-1.492-2.932-0.871l-19.025 11.121c-2.234 1.305-2.9 5.29 6e-3 7.187z" fill="#010101"/>
	<path d="m78.103 90.394l-9.098-5.387c-2.938-1.74-6.765-0.759-8.505 2.179-1.422 2.401-0.628 5.5 1.773 6.922l0.276 0.164c-0.192 0.265-0.371 0.543-0.523 0.844l-14.513 14.357-8.554-4.979c-2.938-1.74-14.675 5.099-14.675 5.099-5.236 2.998-3.614 6.008-0.676 7.748l46.519 27.858c4.613 2.164 7.22 1.182 8.35-3.452 0 0 0.669-13.83-2.269-15.57l-8.646-5.033 5.552-20.443c0.023-0.045 0.039-0.092 0.061-0.137l0.183 0.108c2.401 1.422 5.5 0.628 6.922-1.773 1.742-2.938 0.761-6.766-2.177-8.505z" fill="#010101"/>
	<path d="m78.305 62.134l10.262 5.797c2.973 1.679 6.779 0.621 8.459-2.352 1.372-2.43 0.515-5.512-1.914-6.885l-0.51-0.288c0.166-0.238 0.323-0.485 0.457-0.752l14.693-14.514 8.457 4.694c2.973 1.679 14.567-5.398 14.567-5.398 5.173-3.104 3.49-6.081 0.517-7.76l-47.078-26.901c-4.656-2.069-7.243-1.035-8.278 3.621 0 0-0.386 13.841 2.587 15.52l8.945 4.965-5.496 20.179c-0.064 0.128-0.117 0.258-0.172 0.388-2.777-0.904-5.897 0.239-7.389 2.88-1.35 2.393-0.499 5.455 1.893 6.806z" fill="#010101"/>
		<ellipse transform="matrix(.3827 -.9239 .9239 .3827 -21.344 119.52)" cx="78.765" cy="75.732" rx="9.054" ry="9.054" fill="#F15622"/>
	<path d="m56.937 66.883l-36.379-21.701c-0.081-0.048-0.167-0.094-0.253-0.132-4.496-1.985-7.585 0.721-6.685 7.669 8e-3 0.06 0.013 0.122 0.015 0.182l0.599 18.93c0.024 1.285 1.195 2.242 2.46 2.009l6.892-1.109c0.479-0.088 0.901-0.339 1.206-0.696 0.295-0.346 0.429-0.802 0.434-1.256l0.072-5.449c0.014-1.416 1.398-2.411 2.743-1.97 5.187 1.702 15.99 5.728 16.098 14.034 0.103 7.896-10.713 11.285-15.83 12.937-1.32 0.426-2.68-0.524-2.735-1.91l-0.206-4.838c-0.023-0.582-0.266-1.155-0.73-1.507-0.322-0.245-0.716-0.397-1.139-0.422l-7.09-0.604c-1.213-0.072-2.229 0.906-2.204 2.121l0.286 22.035c0.034 2.586 3.171 5.133 6.255 3.54l36.608-21.48c7.713-4.77 8.541-15.25-0.417-20.383z" fill="#010101"/>
	<path d="m136.11 110.89l-36.79-21.167c-7.962-4.341-17.477 0.13-17.5 10.455l-0.839 42.351c-2e-3 0.094 1e-3 0.191 0.011 0.285 0.502 4.889 4.383 6.233 9.973 2.01 0.048-0.036 0.099-0.072 0.151-0.103l16.149-9.895c1.105-0.657 1.356-2.149 0.527-3.132l-4.376-5.438c-0.314-0.372-0.741-0.615-1.201-0.703-0.447-0.085-0.909 0.024-1.306 0.245l-4.77 2.635c-1.237 0.689-2.787-0.02-3.07-1.407-1.089-5.349-2.942-16.728 4.221-20.935 6.809-3.999 15.109 3.719 19.078 7.346 1.024 0.936 0.872 2.588-0.306 3.322l-4.101 2.575c-0.494 0.308-0.871 0.803-0.948 1.38-0.054 0.402 0.01 0.819 0.197 1.198l2.986 6.459c0.538 1.089 1.891 1.488 2.934 0.865l19.002-11.16c2.23-1.309 2.889-5.296-0.022-7.186z" fill="#010101"/>
	<path d="m143.16 99.972l-0.683-19.535c-0.029-1.285-1.204-2.238-2.467-2l-6.879 1.652c-0.792 0.149-1.427 0.742-1.63 1.522l-0.076 8.064s-18.7-4.347-18.864-14.172c-0.173-10.346 18.379-14.799 18.379-14.799l0.391 9.064c0.277 0.799 1.009 1.352 1.853 1.398l7.092 0.578c1.213 0.067 2.226-0.914 2.196-2.129l-0.368-22.033c-0.043-2.586-3.19-5.121-6.268-3.517l-36.527 21.618c-7.696 4.797-8.484 15.28 0.493 20.379l36.582 21.636c4.595 2.088 7.751-0.647 6.776-7.726z" fill="#010101"/>
</svg>
